PathFileType	4	(X/Y/Z)	2014001\dynamic\2014001_C3_03.trc
DataRate	CameraRate	NumFrames	NumMarkers	Units	OrigDataRate	OrigDataStartFrame	OrigNumFrames
100.000000	100.000000	4	52	mm	100.000000	22	183
Frame#	Time	L_IAS			L_IPS			R_IPS			R_IAS			L_FTC			L_FLE			L_FME			L_FAX			L_TTC			L_FAL			L_TAM			L_FCC			L_FM1			L_FM2			L_FM5			R_FTC			R_FLE			R_FME			R_FAX			R_TTC			R_FAL			R_TAM			R_FCC			R_FM1			R_FM2			R_FM5			CV7			TV10			SXS			SJN			L_SIA			L_SRS			L_SAA			L_SAE			L_HLE			L_HME			L_UOA			L_RSP			L_UHE			L_HM2			L_HM5			R_SIA			R_SRS			R_SAA			R_SAE			R_HLE			R_HME			R_UOA			R_RSP			R_UHE			R_HM2			R_HM5			
		X1	Y1	Z1	X2	Y2	Z2	X3	Y3	Z3	X4	Y4	Z4	X5	Y5	Z5	X6	Y6	Z6	X7	Y7	Z7	X8	Y8	Z8	X9	Y9	Z9	X10	Y10	Z10	X11	Y11	Z11	X12	Y12	Z12	X13	Y13	Z13	X14	Y14	Z14	X15	Y15	Z15	X16	Y16	Z16	X17	Y17	Z17	X18	Y18	Z18	X19	Y19	Z19	X20	Y20	Z20	X21	Y21	Z21	X22	Y22	Z22	X23	Y23	Z23	X24	Y24	Z24	X25	Y25	Z25	X26	Y26	Z26	X27	Y27	Z27	X28	Y28	Z28	X29	Y29	Z29	X30	Y30	Z30	X31	Y31	Z31	X32	Y32	Z32	X33	Y33	Z33	X34	Y34	Z34	X35	Y35	Z35	X36	Y36	Z36	X37	Y37	Z37	X38	Y38	Z38	X39	Y39	Z39	X40	Y40	Z40	X41	Y41	Z41	X42	Y42	Z42	X43	Y43	Z43	X44	Y44	Z44	X45	Y45	Z45	X46	Y46	Z46	X47	Y47	Z47	X48	Y48	Z48	X49	Y49	Z49	X50	Y50	Z50	X51	Y51	Z51	X52	Y52	Z52	

23	0.22	356.9109191894532	858.873168945313	126.7108230590821	269.2944335937501	903.8546752929692	-43.20681381225587	178.3427429199219	903.425415039063	-38.80788421630861	120.0666503906251	877.1068725585942	148.6388702392579	406.692810058594	776.9809570312505	34.10799026489259	410.633239746094	434.7406311035159	-14.75223922729493	302.6665954589845	399.4552001953127	27.19567298889162	414.4486389160159	396.828552246094	-64.52854156494143	380.8661193847657	336.3511657714845	-23.39777755737305	362.3236389160157	183.6955718994141	-302.6512756347657	282.3645324707032	168.3513488769532	-266.3022766113282	306.6639404296876	192.6984405517579	-349.2465209960939	295.7254028320314	48.88290786743167	-253.154266357422	354.5394897460939	48.6222953796387	-252.6156158447267	389.2250061035159	73.46631622314456	-295.1562805175782	52.43317031860354	780.892944335938	67.83157348632815	96.94075012207037	442.3521423339846	176.5375518798829	216.1641998291017	437.8938293457034	184.9988708496094	94.37766265869143	376.3242492675782	166.2404327392579	148.3807220458985	376.0145263671876	227.6317291259767	146.4177703857422	65.76419830322268	139.1911010742188	230.3075103759767	83.72763824462893	175.1436309814454	201.6322479248048	24.67405700683595	97.52513885498053	221.2835693359376	24.91495895385744	284.1177368164064	156.5105590820313	36.0327835083008	289.7889099121095	109.8787002563477	23.66743087768555	231.1895294189454	217.6979064941407	1370.909545898438	-10.91228389739991	228.3508148193361	1137.344482421875	-69.8769454956055	229.7824707031251	1144.737182617188	162.207015991211	220.4379730224611	1306.91162109375	118.4939041137696	324.8995361328126	1182.427978515625	-73.37679290771487	310.0553588867189	1312.487426757813	-52.21975708007815	416.8413085937502	1315.075073242188	25.12057495117189	398.0486450195315	1325.644775390625	64.19915771484378	492.3267211914065	1046.542358398438	52.43921661376956	422.0934753417971	1007.647216796875	20.86761093139649	473.048767089844	1006.499328613282	19.96501541137696	435.7630920410159	832.0785522460942	176.9370574951172	508.7706604003909	820.7191772460942	145.6156616210938	437.1642150878909	762.0169067382815	226.7219238281251	511.0959472656252	743.8444824218752	159.0391693115235	117.8526077270508	1176.367797851563	-81.47489929199222	135.440902709961	1300.000854492188	-50.92536544799808	29.54979896545412	1294.608154296875	20.32112503051759	38.87005615234376	1297.788330078125	70.01935577392581	-15.0212631225586	998.0802612304692	4.268619537353517	63.60994338989261	985.953247070313	-16.43646430969239	18.2003345489502	981.3249511718755	-25.02056121826173	3.468088150024416	776.3271484375005	66.15816497802737	-53.55400848388675	785.4313354492192	9.801080703735355	-12.14958190917969	682.7309570312502	73.84196472167972	-54.07971954345706	710.5780029296877	-14.58043098449708	
24	0.23	356.1276855468751	861.1284179687505	136.2141876220704	267.344696044922	905.3986206054692	-33.02020263671876	176.5282287597657	905.2568359375005	-28.20486259460451	119.208236694336	878.432739257813	159.5661315917969	405.0409240722659	778.115356445313	44.79859542846681	411.5854797363284	434.8462829589846	6.390469074249271	303.4638061523439	399.9457702636721	48.74305343627933	415.6741943359377	397.3409118652346	-42.92681884765626	381.775115966797	336.5513916015626	-2.325814485549928	362.9700927734376	188.5845336914063	-284.206756591797	283.0258789062501	172.0921630859376	-248.0605926513673	307.0940246582032	197.7457275390626	-330.8530273437501	299.479705810547	52.33673095703128	-235.6473541259767	358.0895080566407	52.80739593505862	-235.6633148193361	391.8222656250002	79.59380340576175	-278.2868041992189	51.35171890258792	782.487426757813	78.53837585449222	96.46950531005865	442.1101074218752	180.8574676513672	216.1224670410157	437.499450683594	189.0033569335938	94.01938629150393	376.1087951660157	169.5331115722657	148.1488952636719	375.1051635742189	230.9220275878907	146.5723114013672	65.85493469238284	139.2029113769532	230.5485687255861	83.59073638916018	175.1554718017579	201.6582641601564	24.78035926818849	97.35377502441412	221.5618438720704	24.81236457824708	283.9436035156251	156.7047882080079	36.24874114990236	289.790252685547	109.9832992553712	23.84066009521485	231.0952453613282	216.2937316894532	1372.7451171875	-1.123248219490052	226.0955963134767	1138.939575195313	-59.73308944702151	229.5955047607423	1146.998413085938	172.3232727050782	220.0698852539064	1308.986938476563	128.2683715820313	322.2795410156251	1183.84326171875	-64.20542144775393	308.0590820312501	1314.0458984375	-43.26509857177736	415.599792480469	1316.583862304688	32.89712524414064	397.3927001953127	1327.242797851563	72.20872497558597	490.6799621582034	1047.994873046875	57.87279129028323	419.9985961914065	1009.817443847657	26.14251518249513	470.9104309082034	1008.869873046875	24.88228988647462	437.0423583984377	829.659057617188	176.8742065429688	510.1197509765627	820.204467773438	144.6110534667969	439.2910461425784	757.4058837890627	223.5845336914064	513.246765136719	742.8731079101565	155.0314941406251	115.0840606689454	1178.22314453125	-70.39065551757815	133.4528350830079	1301.721801757813	-40.25482177734376	28.23945045471193	1296.8232421875	31.9686908721924	38.19352340698244	1300.184936523438	81.57649230957034	-17.29160499572755	999.8030395507817	19.94158363342286	60.91826629638675	987.338500976563	-2.01252317428589	15.39141845703126	982.5805664062505	-9.84857273101807	2.21130919456482	779.036743164063	84.96081542968753	-55.79760742187503	787.2617797851567	29.41698074340822	-13.56811237335206	685.7796630859377	94.68391418457034	-56.72902679443362	712.0720825195315	6.377472400665287	
25	0.24	355.4877014160157	863.4232788085942	145.5270080566407	265.5096740722657	907.0219116210942	-23.0383529663086	174.8242492675782	907.1262207031255	-17.81905174255372	118.495704650879	879.739868164063	170.2488555908204	403.5421142578127	779.4083862304692	55.30494308471683	412.4226989746096	435.2721862792971	27.59681892395021	304.0051269531251	400.9233398437502	70.22095489501956	416.7109985351565	398.056335449219	-21.19787406921387	382.4993591308595	337.0853881835939	19.04551315307618	363.5671386718751	192.7106781005861	-264.7904357910157	283.6144409179689	175.2602539062501	-228.8598785400392	307.5455932617189	201.5857849121095	-311.657440185547	303.2109680175782	55.52614593505862	-216.1336822509767	361.6665039062501	56.87945938110354	-216.5546112060548	394.4486999511721	85.10844421386722	-259.5267944335939	50.3913269042969	784.0410156250005	88.8997497558594	96.02127838134771	441.9313964843752	184.7137451171876	216.0654602050782	437.1523742675784	192.5783081054689	93.66458892822268	375.9170837402345	172.4235229492188	147.9049682617188	374.2721557617189	233.7893524169923	146.6693267822266	65.92998504638675	139.1869659423829	230.6848297119142	83.53919219970706	175.1716613769532	201.6854858398439	24.89474105834962	97.17121887207037	221.7165832519532	24.73735427856447	283.7935791015626	156.8269195556641	36.37561035156251	289.755340576172	110.0726623535157	23.8805103302002	230.9925079345704	214.9594268798829	1374.589965820313	8.601018905639652	223.9039154052736	1140.573486328125	-49.74198150634768	229.5194396972657	1149.206176757813	182.2572631835938	219.8148193359376	1311.035278320313	137.926986694336	319.6583862304689	1185.294189453125	-55.19258499145511	306.0953674316407	1315.640502929688	-34.44367980957033	414.4118347167971	1318.083740234375	40.50183486938478	396.813415527344	1328.820678710938	80.04920959472659	489.1235656738284	1049.485229492188	63.1051940917969	418.0139160156252	1011.973999023438	31.30061149597169	468.8610534667971	1011.260803222657	29.66415596008302	438.3763122558596	827.5967407226567	176.6295166015626	511.5317077636721	820.0664062500005	143.5730590820313	441.4186096191409	753.3060302734377	220.259490966797	515.4273681640627	742.3823242187502	151.0165100097657	112.3399047851563	1180.140014648438	-59.34943389892581	131.5191955566407	1303.487670898438	-29.65879058837892	27.02513504028322	1299.071533203125	43.60459899902345	37.6588821411133	1302.569091796875	93.11893463134768	-19.58381462097169	1001.604125976563	35.66458892822267	58.15093612670901	988.760864257813	12.35823726654053	12.51394367218018	983.876586914063	5.322445869445803	1.005237579345704	782.0181274414067	104.0579223632813	-57.98600006103518	789.2396850585942	49.34760284423831	-14.95422554016114	689.159118652344	116.0639572143555	-59.33662033081058	713.6873779296877	27.8355121612549	
26	0.25	354.9278259277345	865.741577148438	154.7375793457032	263.8234252929689	908.7106323242192	-13.2300500869751	173.2569122314454	908.9929809570317	-7.636550903320316	117.8637924194337	881.029663085938	180.6725616455079	402.2112731933596	780.8665161132817	65.70269012451175	413.1404113769534	436.0458068847659	48.76583099365237	304.320281982422	402.3715515136721	91.563102722168	417.5490722656252	398.9981689453127	0.5428817272186282	383.073455810547	337.9710083007814	40.63146591186525	364.1414489746095	195.9577026367189	-244.4529418945314	284.1626281738282	177.7685546875001	-208.7324066162111	308.0492553710939	204.1440429687501	-291.7012023925782	306.7945251464845	58.32912445068362	-194.7454833984376	365.1398315429689	60.66275405883792	-195.416229248047	397.0261230468752	89.81550598144534	-238.9467315673829	49.54557800292972	785.5228881835942	98.8973007202149	95.59450531005862	441.8139648437502	188.183578491211	215.9702911376954	436.8658752441409	195.8152008056642	93.31549835205081	375.7563781738282	174.9994506835938	147.6424102783204	373.5240478515626	236.3178253173829	146.7170410156251	66.0026550292969	139.1774902343751	230.7355041503907	83.56123352050784	175.2231445312501	201.7137603759767	25.03540802001955	97.00283813476568	221.7665100097657	24.66467285156251	283.6839294433595	156.8830108642579	36.4053077697754	289.7200622558595	110.1327819824219	23.81141471862794	230.8970031738282	213.6994171142579	1376.423706054688	18.25968742370606	221.796356201172	1142.222290039063	-39.89078903198244	229.5394439697267	1151.34521484375	192.0214843750001	219.6679687500001	1313.044921875	147.4771423339844	317.0655822753907	1186.765380859375	-46.32026672363283	304.1755676269532	1317.247680664063	-25.7374954223633	413.2729492187502	1319.570556640625	47.95541763305665	396.3086242675784	1330.374389648438	87.73612213134768	487.6531066894534	1051.007446289063	68.11919403076175	416.1297912597659	1014.105407714844	36.35568618774415	466.8892517089846	1013.658569335938	34.29681396484376	439.767272949219	825.8982543945317	176.2503204345704	512.9782714843752	820.2745971679692	142.5124511718751	443.5561828613284	749.7388305664065	216.8410949707032	517.6131591796877	742.3479003906252	147.047592163086	109.641700744629	1182.089233398438	-48.33411026000979	129.650375366211	1305.272094726563	-19.13523483276368	25.91172790527345	1301.333862304688	55.22343063354495	37.26915740966798	1304.923095703125	104.6355361938477	-21.88686180114747	1003.477783203125	51.41702270507815	55.322135925293	990.2084350585942	26.67529296875001	9.582070350646976	985.2026977539067	20.49513244628907	-0.1490977704524994	785.269653320313	123.4130401611329	-60.104850769043	791.3769531250005	69.55532836914065	-16.28914833068848	692.8720703125002	137.9164733886719	-61.88361358642581	715.4490356445315	49.74574661254886	
